<?xml version="1.0" standalone="no"?>
<!DOCTYPE svg PUBLIC "-//W3C//DTD SVG 20010904//EN"
 "http://www.w3.org/TR/2001/REC-SVG-20010904/DTD/svg10.dtd">
<svg version="1.0" xmlns="http://www.w3.org/2000/svg"
 width="115.000000pt" height="115.000000pt" viewBox="0 0 115.000000 115.000000"
 preserveAspectRatio="xMidYMid meet">
<metadata>
Created by potrace 1.11, written by Peter Selinger 2001-2013
</metadata>
<g transform="translate(0.000000,115.000000) scale(0.100000,-0.100000)"
fill="#000000" stroke="none">
<path d="M431 1124 c-280 -75 -456 -339 -420 -627 59 -469 634 -663 969 -327
112 112 164 238 164 400 0 264 -174 490 -429 555 -74 19 -213 18 -284 -1z
m391 -200 c58 -30 97 -116 80 -177 -5 -17 -31 -83 -56 -145 -26 -62 -44 -117
-41 -122 3 -6 20 -10 36 -10 18 0 28 -4 24 -10 -8 -13 -145 -13 -145 0 0 6 6
10 13 10 15 0 22 14 79 155 56 139 60 154 47 192 -16 50 -62 83 -116 83 -73 0
-93 -22 -152 -164 -28 -69 -51 -132 -51 -140 0 -13 14 -16 80 -16 47 0 80 -4
80 -10 0 -5 -7 -10 -15 -10 -18 0 -30 -24 -89 -169 -61 -152 -99 -191 -186
-191 -81 0 -135 43 -160 126 -12 39 -10 47 44 183 31 78 56 147 56 152 0 5
-16 9 -36 9 -21 0 -33 4 -29 10 3 6 37 10 76 10 39 0 69 -4 69 -10 0 -5 -6
-10 -14 -10 -8 0 -36 -54 -70 -136 -69 -169 -73 -209 -22 -260 28 -28 41 -34
77 -34 78 0 99 22 157 163 29 69 52 133 52 141 0 13 -13 16 -74 16 -41 0 -78
5 -81 10 -3 6 1 10 9 10 18 0 38 37 95 181 46 116 81 160 141 177 39 12 82 6
122 -14z"/>
</g>
</svg>
