<?xml version="1.0" standalone="no"?>
<!DOCTYPE svg PUBLIC "-//W3C//DTD SVG 20010904//EN"
 "http://www.w3.org/TR/2001/REC-SVG-20010904/DTD/svg10.dtd">
<svg version="1.0" xmlns="http://www.w3.org/2000/svg"
 width="1024.000000pt" height="1024.000000pt" viewBox="0 0 1024.000000 1024.000000"
 preserveAspectRatio="xMidYMid meet">
<metadata>
Created by potrace 1.11, written by Peter Selinger 2001-2013
</metadata>
<g transform="translate(0.000000,1024.000000) scale(0.100000,-0.100000)"
fill="#000000" stroke="none">
<path d="M2190 8083 c0 -8 75 -195 90 -224 12 -24 67 -255 76 -319 4 -30 8
-304 8 -608 1 -482 -1 -555 -14 -566 -13 -11 -167 -100 -298 -173 -430 -238
-836 -510 -1202 -807 -246 -200 -425 -415 -539 -651 -52 -105 -95 -228 -110
-308 -12 -67 -6 -210 13 -292 23 -98 49 -185 56 -185 3 0 11 36 18 80 14 98
24 119 126 250 139 179 240 277 426 413 149 110 534 347 775 477 216 117 518
270 534 270 6 0 11 5 11 10 0 6 8 10 18 10 10 0 22 4 27 9 6 5 45 25 88 45
l77 35 -2 -856 -3 -856 -25 -8 c-14 -4 -56 -17 -95 -28 -38 -11 -124 -36 -189
-56 -216 -64 -498 -128 -661 -151 -22 -3 -51 -7 -65 -9 -14 -2 -52 -6 -85 -10
-33 -3 -71 -8 -85 -10 -133 -21 -467 -24 -555 -6 -211 44 -364 146 -514 345
-29 38 -57 81 -62 94 -5 14 -12 22 -15 19 -7 -7 74 -290 102 -354 96 -220 343
-421 634 -516 94 -31 183 -53 244 -62 27 -4 101 -14 146 -20 174 -23 583 -23
652 0 7 2 38 6 68 9 30 3 66 7 80 10 14 2 44 7 67 10 59 7 280 45 309 52 22 6
24 4 20 -17 -3 -13 -8 -55 -11 -94 -4 -38 -8 -83 -11 -100 -2 -16 -6 -50 -9
-75 -2 -25 -6 -54 -8 -65 -3 -11 -8 -45 -12 -75 -15 -116 -61 -297 -121 -473
-19 -55 -34 -101 -34 -103 0 -2 299 -4 665 -4 366 0 665 2 665 5 0 5 -40 106
-60 150 -5 11 -18 49 -30 85 -12 36 -24 72 -27 80 -3 8 -7 20 -9 27 -1 6 -7
27 -13 45 -10 33 -35 165 -46 243 -2 22 -7 56 -10 75 -2 19 -7 58 -10 85 -3
28 -10 84 -15 125 -27 218 -31 304 -15 306 16 1 94 23 155 44 30 10 96 31 145
45 50 14 97 29 105 32 8 3 22 7 30 9 8 2 78 23 155 47 77 24 220 68 317 98 98
30 178 57 178 60 0 3 -102 73 -227 156 l-228 149 -34 122 c-18 67 -39 122 -45
122 -6 0 -31 -7 -56 -14 -25 -8 -147 -46 -272 -85 -125 -39 -232 -71 -237 -71
-5 0 -7 108 -6 253 4 308 23 1523 24 1558 1 19 131 82 272 133 l97 34 318
-406 c176 -223 356 -454 402 -512 46 -58 93 -118 106 -135 13 -16 43 -55 67
-85 35 -44 254 -323 373 -475 13 -16 85 -107 159 -202 75 -94 149 -190 166
-213 l30 -41 118 151 c65 84 127 164 138 178 23 31 295 383 330 427 13 17 105
136 205 265 99 129 186 242 193 250 7 8 28 35 47 60 19 25 40 52 47 60 31 39
443 573 483 625 25 33 47 62 50 65 3 3 35 43 70 90 36 47 68 87 71 90 3 3 25
32 50 65 24 33 46 62 49 65 3 3 38 47 78 99 l72 94 -2 -1108 -3 -1108 -125
-54 c-140 -60 -243 -105 -310 -135 -147 -67 -436 -188 -447 -188 -7 0 -13 -4
-13 -10 0 -5 -5 -10 -12 -10 -6 0 -104 -38 -217 -84 -113 -46 -285 -114 -381
-151 -96 -36 -184 -70 -195 -75 -37 -15 -189 -69 -355 -125 -267 -91 -673
-231 -750 -260 -25 -9 -52 -18 -60 -20 -8 -2 -28 -8 -45 -15 -29 -11 -25 -13
125 -69 85 -32 178 -65 207 -75 l52 -17 30 -97 c16 -53 35 -117 42 -142 7 -25
16 -50 21 -57 9 -11 76 11 883 287 335 114 426 146 530 184 106 39 118 44 177
70 20 9 39 16 43 16 4 0 33 11 64 25 31 13 112 47 181 76 68 28 143 59 165 69
22 10 78 35 125 55 95 41 132 57 205 91 27 12 52 19 55 14 16 -26 -3 -582 -25
-715 -2 -16 -7 -48 -10 -70 -4 -22 -8 -51 -11 -65 -3 -14 -7 -38 -9 -54 -13
-85 -140 -505 -171 -565 -8 -14 -14 -29 -14 -32 0 -7 1327 -6 1334 2 4 4 -4
37 -18 75 -41 114 -97 324 -120 444 -3 14 -12 61 -20 105 -8 44 -18 94 -20
110 -3 17 -8 41 -10 55 -8 38 -19 112 -31 199 -3 30 -9 63 -12 75 -4 19 -7
137 -14 676 l-3 205 40 26 c21 15 113 73 204 129 322 200 809 537 954 661 12
10 54 45 94 78 112 93 146 125 288 266 223 222 337 371 432 565 32 63 57 117
57 120 0 3 8 25 17 50 32 87 56 176 69 250 15 89 15 268 0 283 -8 8 -11 6 -11
-7 0 -44 -73 -233 -106 -276 -48 -61 -302 -318 -394 -398 -41 -36 -77 -68 -80
-72 -8 -11 -351 -264 -420 -311 -36 -24 -71 -49 -78 -56 -7 -7 -17 -13 -22
-13 -5 0 -15 -6 -22 -13 -13 -12 -106 -75 -268 -179 -181 -116 -371 -224 -595
-336 -66 -33 -127 -62 -135 -64 -13 -3 -15 133 -16 1134 0 799 3 1138 10 1141
17 5 540 0 631 -7 164 -12 221 -17 245 -21 14 -2 54 -7 90 -10 35 -4 67 -8 70
-10 3 -2 26 -6 51 -9 117 -15 334 -75 461 -129 208 -88 332 -233 333 -389 0
-38 3 -68 6 -68 23 0 72 206 72 305 -1 136 -43 229 -173 378 -73 84 -260 201
-445 278 -36 15 -259 87 -295 95 -19 4 -39 9 -45 10 -23 7 -182 42 -210 47
-112 21 -154 28 -185 32 -19 3 -46 8 -60 11 -14 3 -43 7 -65 9 -23 2 -53 6
-67 9 -14 2 -50 7 -79 11 -30 3 -67 8 -84 10 -16 2 -61 7 -100 11 -38 3 -76 8
-85 9 -8 2 -23 4 -34 4 -13 1 -16 6 -11 19 4 9 29 78 55 152 26 74 57 161 68
193 11 31 17 57 14 58 -7 1 -334 -1 -679 -3 l-213 -2 -93 -120 c-51 -67 -129
-167 -172 -223 -43 -57 -85 -103 -94 -104 -50 -3 -82 -6 -136 -13 -33 -3 -82
-9 -110 -12 -27 -3 -84 -9 -125 -14 -41 -5 -102 -12 -135 -15 -33 -3 -71 -8
-85 -11 -14 -3 -38 -7 -55 -9 -16 -2 -50 -7 -75 -10 -25 -4 -58 -8 -75 -11
-78 -10 -386 -60 -435 -69 -42 -9 -66 -13 -101 -19 -19 -3 -45 -8 -59 -11 -14
-2 -59 -12 -100 -20 -41 -8 -86 -17 -99 -20 -13 -2 -85 -18 -160 -36 -75 -17
-143 -32 -151 -34 -8 -2 -51 -13 -95 -25 -44 -12 -90 -23 -102 -26 -12 -2 -34
-9 -48 -14 -14 -5 -25 -7 -25 -5 0 2 -11 0 -25 -5 -14 -5 -36 -12 -48 -14 -28
-6 -244 -66 -362 -101 -50 -14 -97 -28 -105 -30 -13 -3 -130 -39 -325 -99 -27
-8 -50 -14 -51 -13 0 1 -88 121 -195 267 -106 146 -198 270 -204 277 -5 7 -40
54 -78 105 -37 51 -110 150 -161 220 -51 70 -110 150 -130 178 l-36 50 -450 0
c-247 0 -450 -3 -450 -7z m4240 -1202 c0 -4 -32 -50 -72 -102 -39 -52 -106
-139 -148 -194 -228 -298 -267 -349 -285 -375 -19 -27 -291 -383 -340 -445
-13 -16 -50 -66 -84 -110 -33 -44 -64 -84 -68 -90 -5 -5 -51 -66 -103 -135
-52 -69 -100 -130 -106 -137 -9 -10 -67 60 -249 300 -130 172 -242 319 -248
327 -7 8 -48 62 -92 120 -44 58 -83 110 -87 115 -5 6 -40 51 -78 101 l-69 92
57 20 c48 18 128 44 302 98 14 4 27 8 30 9 3 0 50 15 105 32 55 17 120 37 145
44 25 7 50 14 55 15 55 16 164 46 179 49 10 2 33 9 51 15 18 6 41 12 51 14 10
2 48 12 84 21 36 9 72 18 80 20 8 2 121 28 250 58 129 30 251 58 270 61 19 3
50 10 68 15 17 5 32 8 32 6 0 -3 11 0 25 5 25 9 49 15 111 25 25 5 123 29 132
34 1 0 2 -3 2 -8z"/>
</g>
</svg>
