<?xml version="1.0" encoding="utf-8"?>
<!-- Generator: Adobe Illustrator 25.1.0, SVG Export Plug-In . SVG Version: 6.00 Build 0)  -->
<svg version="1.1" id="Layer_1" xmlns="http://www.w3.org/2000/svg" xmlns:xlink="http://www.w3.org/1999/xlink" x="0px" y="0px"
	 viewBox="0 0 70 53" style="enable-background:new 0 0 70 53;" xml:space="preserve">
<g>
	<g>
		<path style="fill:#FFFFFF;" d="M24.7,52.8L24.7,52.8c-1.7,0-3.2-0.6-4.4-1.8L2.1,32.7c-1.2-1.2-1.8-2.7-1.8-4.4s0.6-3.2,1.8-4.4
			c2.4-2.4,6.3-2.4,8.7,0l13.8,13.8L59.2,2.1c1.1-1.2,2.7-1.8,4.3-1.9c1.7,0,3.2,0.6,4.4,1.7c2.4,2.4,2.5,6.3,0.1,8.7L29.1,50.9
			C28,52.1,26.4,52.8,24.7,52.8L24.7,52.8z M6.4,24.2c-1.1,0-2.1,0.4-2.9,1.2c-1.6,1.6-1.6,4.3,0,5.9l18.3,18.3
			c0.8,0.8,1.8,1.2,2.9,1.2h0c1.1,0,2.2-0.5,2.9-1.3L66.6,9.3c1.6-1.6,1.6-4.3-0.1-5.9c-0.8-0.8-1.8-1.1-3-1.2
			c-1.1,0-2.1,0.5-2.9,1.3l-36,37.2L9.4,25.4C8.5,24.6,7.5,24.2,6.4,24.2z"/>
	</g>
</g>
</svg>
