<?xml version="1.0" encoding="utf-8"?>
<!-- Generator: Adobe Illustrator 16.0.0, SVG Export Plug-In . SVG Version: 6.00 Build 0)  -->
<!DOCTYPE svg PUBLIC "-//W3C//DTD SVG 1.1//EN" "http://www.w3.org/Graphics/SVG/1.1/DTD/svg11.dtd">
<svg version="1.1" id="圖層_1" xmlns="http://www.w3.org/2000/svg" xmlns:xlink="http://www.w3.org/1999/xlink" x="0px" y="0px"
	 width="185.281px" height="149.517px" viewBox="0 0 185.281 149.517" enable-background="new 0 0 185.281 149.517"
	 xml:space="preserve">
<g>
	<g>
		<path fill-rule="evenodd" clip-rule="evenodd" fill="#C7000B" d="M77.686,32.439c54.337-18.91,107.265-18.082,102.049-0.959
			c14.759-25.414-53.134-33.26-117.698-8.676C35.677,32.836-6.774,55.813,5.146,76.328C5.146,76.328-2.161,60.287,77.686,32.439z"/>
		<path fill-rule="evenodd" clip-rule="evenodd" fill="#005AA0" d="M94.368,75.074l35.991-46.67v55.457
			c0,1.73,0,13.668-4.549,24.006h25.213c-2.104-5.023-4.808-12.076-4.808-28.74c0,0,0-59.357,0-65.834
			c0-7.664,3.525-13.293,3.525-13.293h-17.127c-2.425,4.711-38.28,50.512-38.28,50.512S58.546,4.711,56.116,0H38.983
			c0,0,3.512,5.629,3.512,13.293c0,6.477,0,65.834,0,65.834c0,16.664-2.681,23.717-4.805,28.74h25.228
			C58.37,97.529,58.37,85.592,58.37,83.861V28.404L94.368,75.074z"/>
		<path fill-rule="evenodd" clip-rule="evenodd" fill="#C7000B" d="M86.318,96.713c4.609-1.352,4.035-1.172,11.199-3.547
			c57.981-19.162,93.584-48.23,86.979-67.039c3.042,11.332-37.188,37.43-91.495,56.414c-5.62,1.967-11.151,3.805-16.603,5.51
			l8.445,2.961L86.318,96.713z"/>
		<path fill-rule="evenodd" clip-rule="evenodd" fill="#C7000B" d="M68.92,69.26C23.361,83.049,6.41,88.51,0,72.414
			c1.913,23.992,30.051,23.662,78.448,7.156l-8.64-5.631L68.92,69.26z"/>
	</g>
	<g>
		<g>
			<path fill="#005AA0" stroke="#005AA0" stroke-width="0.9212" d="M16.198,120.951l1.198,0.162h10.613
				c-0.031-0.672-0.078-1.383-0.128-2.164c0-0.584,0.216-0.873,0.662-0.873c0.774,0,1.157,0.289,1.157,0.873
				c-0.018,0.781-0.038,1.492-0.078,2.164c5.159-0.027,8.904-0.082,11.231-0.162c0.526,0,0.799,0.205,0.799,0.627
				c0,0.105-0.121,0.309-0.342,0.621c-0.247,0.271-0.51,0.406-0.79,0.406c-2.368-0.08-6.016-0.135-10.974-0.156
				c-0.059,0.709-0.128,1.379-0.209,1.994h9.02c0.446,0,0.67,0.254,0.67,0.785c0,0.023-0.021,0.104-0.043,0.25
				c-0.057,0.219-0.082,0.668-0.082,1.336c-0.019,0.828-0.044,1.732-0.044,2.703v2.578c0,0.518-0.225,0.777-0.706,0.777
				c-1.778-0.049-3.45-0.086-5.027-0.119c0.311,0.473,0.584,0.936,0.866,1.367c0.313,0.592,0.47,1.016,0.493,1.293
				c0,0.326-0.173,0.545-0.53,0.623c0.47,0.029,0.7,0.324,0.7,0.873c-0.138,0.428-0.242,0.926-0.335,1.502
				c0.84,0.043,1.684,0.1,2.541,0.174c3.101,0.432,5.437,0.65,6.99,0.65c0.925,0,2.01-0.342,3.277-1.031
				c0.367,0,0.546,0.18,0.546,0.541c0,0.744-0.452,1.539-1.374,2.363c-0.643,0.641-1.179,0.959-1.666,0.959
				c-0.586,0-1.576-0.26-2.979-0.754c-1.872-0.713-3.961-1.219-6.291-1.484c-0.434-0.059-0.831-0.105-1.158-0.133
				c-0.031,0.422-0.05,0.813-0.05,1.205c0,0.855,0.119,2.346,0.33,4.451c0,1.385-0.423,2.361-1.283,2.906
				c-0.862,0.527-1.807,0.797-2.867,0.797c-0.47,0-0.788-0.201-0.957-0.627c-0.059-0.383-0.118-0.752-0.209-1.08
				c-0.082-0.301-0.195-0.588-0.323-0.873c-0.104-0.104-0.182-0.246-0.182-0.422c0.028-0.102,0.201-0.152,0.505-0.152
				c1.424-0.033,2.305-0.133,2.7-0.295c0.53-0.182,0.785-0.625,0.785-1.381v-3.324c0-0.471,0.031-0.908,0.053-1.32
				c-1.747-0.146-3.588-0.217-5.53-0.217c-3.02,0-5.961,0.113-8.825,0.332c-2.431,0.391-5.027,1.002-7.771,1.838
				c-0.7,0-1.032-0.221-1.032-0.633c0-0.363,0.126-0.662,0.417-0.908c0.235-0.361,0.656-0.57,1.233-0.629
				c6.999-0.891,12.324-1.33,15.978-1.33c1.688,0,3.554,0.07,5.624,0.207c0.05-0.494,0.132-0.936,0.226-1.332
				c0-0.354,0.116-0.604,0.342-0.742c-0.11,0.021-0.242,0.043-0.42,0.043c-1.712,0.1-3.115,0.156-4.199,0.156l-3.738-0.156
				c-0.641,0-1.403,0.047-2.286,0.156c-0.7,0-1.045-0.227-1.045-0.654c0-0.254,0.238-0.594,0.712-1
				c0.756-0.672,1.39-1.318,1.955-1.959c-1.054,0.033-1.806,0.061-2.25,0.098c-0.805,0.021-1.758,0.1-2.859,0.242
				c-0.47,0-0.719-0.301-0.719-0.875c0.113-1.332,0.176-2.516,0.176-3.541c0-0.998-0.063-2.201-0.176-3.613
				c0-0.525,0.308-0.787,0.878-0.787c0.219,0,0.458,0.025,0.715,0.08c0.244,0.049,0.612,0.086,1.11,0.086h6.743
				c0.047-0.533,0.082-1.047,0.082-1.541v-0.453h-8.809c-0.831,0-1.942,0.1-3.34,0.326c-0.577,0-0.869-0.232-0.869-0.703
				c0-0.275,0.145-0.545,0.423-0.797C15.609,121.086,15.856,120.975,16.198,120.951z M24.888,142.227
				c0.176,0,0.279,0.111,0.279,0.338c0,0.197-0.154,0.402-0.449,0.621c-2.279,2.527-3.844,3.982-4.704,4.373
				c-0.47,0-0.78-0.18-0.949-0.547c0-0.357,0.109-0.682,0.329-0.957C20.197,145.256,22.022,143.982,24.888,142.227z M25.214,131.635
				c0.057-0.084,0.101-0.16,0.129-0.217c0.548-0.74,0.987-1.492,1.326-2.244c-2.183,0.064-4.111,0.131-5.771,0.215
				c-0.313,0-0.523-0.068-0.627-0.158c-0.031,0.656-0.06,1.26-0.088,1.818c0,0.471,0.239,0.709,0.715,0.709
				C22.191,131.695,23.647,131.66,25.214,131.635z M20.329,128.1c0.197-0.1,0.446-0.176,0.737-0.176l6.108,0.092
				c0.117-0.311,0.195-0.555,0.245-0.748c0.191-0.561,0.335-1.117,0.423-1.666c-2.11-0.023-4.431-0.031-6.944-0.031
				c-0.373,0-0.546,0.172-0.546,0.529C20.353,126.771,20.335,127.424,20.329,128.1z M25.973,132.711
				c-0.51,0.658-1.034,1.33-1.58,2.002c0,0.25,0.201,0.375,0.615,0.375l4.613,0.15c1.032,0,1.948-0.027,2.744-0.119
				c0.201-0.018,0.286-0.156,0.286-0.406c0-0.051-0.047-0.152-0.144-0.289c-0.27-0.334-0.641-0.73-1.123-1.178
				c-0.098-0.209-0.147-0.395-0.147-0.535H25.973z M28.662,131.594c2.461,0,5.206,0.051,8.195,0.164
				c0.341,0,0.501-0.182,0.501-0.539v-2.199c-0.106,0.021-0.214,0.021-0.33,0.021c-3.299,0-6.256,0.037-8.866,0.098
				c-0.348,0.748-0.821,1.568-1.417,2.455H28.662z M29.167,125.602c-0.135,0.83-0.304,1.498-0.505,2
				c-0.029,0.17-0.044,0.299-0.079,0.414l8.274,0.084c0.287,0.025,0.451,0.076,0.501,0.164V126.1c0-0.254-0.106-0.375-0.33-0.375
				C34.949,125.645,32.334,125.602,29.167,125.602z"/>
			<path fill="#005AA0" stroke="#005AA0" stroke-width="0.9212" d="M70.294,121.734c0.627,0,0.947,0.295,0.947,0.871
				c0,2.799-0.285,5.395-0.872,7.771c0.031,0,0.056,0,0.087,0c0.346,0,0.641,0.176,0.961,0.51c2.434,3.098,4.65,5.463,6.643,7.068
				c2.214,1.938,4.297,3.318,6.246,4.152c1.52,0.697,3.451,1.229,5.784,1.629c0.521,0.139,0.786,0.416,0.786,0.83
				c0,0.467-0.548,0.984-1.671,1.586c-0.935,0.459-1.753,0.697-2.452,0.697c-0.712,0-1.271-0.111-1.649-0.33
				c-1.375-0.688-2.946-1.811-4.755-3.361c-2.409-2.09-4.473-4.125-6.197-6.121c-1.825-2.139-3.255-3.742-4.318-4.869
				c-0.693,2.498-2.293,5.037-4.783,7.615c-1.816,1.967-4.092,3.59-6.817,4.863c-2.026,0.936-3.513,1.408-4.454,1.408
				c-0.42,0-0.908-0.254-1.492-0.783c-0.646-0.549-0.947-1.066-0.947-1.535c0.019-0.338,0.227-0.525,0.621-0.551
				c3.933-0.279,6.955-1.129,9.057-2.566c2.811-1.836,4.836-4.025,6.121-6.578c1.52-2.879,2.285-5.652,2.285-8.316v-2.949
				C69.423,122.076,69.711,121.734,70.294,121.734z"/>
			<path fill="#005AA0" stroke="#005AA0" stroke-width="0.9212" d="M97.24,120.41c0.188,0,0.512,0.113,0.954,0.371h9.691
				c0.444-0.143,0.765-0.207,0.947-0.207c0.577,0,0.878,0.332,0.878,1.004c-0.223,1.928-0.32,4.268-0.32,7.018
				c0,0.523-0.302,0.793-0.891,0.793c-1.084-0.084-2.287-0.146-3.66-0.158l-0.025,5.363c0.051-0.033,0.123-0.051,0.192-0.051h4.704
				c0.527,0.074,0.797,0.377,0.797,0.871c0,0.311-0.27,0.465-0.797,0.465c-2.051,0-3.672,0.051-4.871,0.158h-0.025l-0.104,5.621
				c2.482-0.725,4.347-1.197,5.633-1.418c0.22,0,0.326,0.17,0.326,0.5c0,0.412-0.162,0.678-0.501,0.795
				c-5.231,1.676-10.104,3.645-14.6,5.854c-0.602,0-0.947-0.232-1.038-0.715c0-0.402,0.063-0.721,0.169-0.947
				c0.088-0.471,0.527-0.869,1.331-1.199c0.199-0.088,0.389-0.152,0.589-0.213c0.401-2.025,0.62-4.227,0.62-6.611
				c0-1.445-0.193-2.986-0.532-4.609c0-0.48,0.288-0.709,0.866-0.709c0.768,0,1.159,0.33,1.159,1.035l0.169,4.115
				c0,1.529-0.106,3.104-0.338,4.742c-0.056,0.58-0.119,1.059-0.201,1.459c1.744-0.609,3.313-1.125,4.698-1.549V129.23h-0.711
				c-1.188,0-2.952,0.117-5.282,0.363c-0.471,0-0.699-0.324-0.699-0.998c0.109-0.332,0.16-0.734,0.16-1.203
				c0-1.277-0.051-3.369-0.16-6.279C96.369,120.639,96.651,120.41,97.24,120.41z M107.541,128.1c0.345-0.15,0.504-0.639,0.504-1.498
				c0.123-1.197,0.166-2.578,0.166-4.152c0-0.225-0.301-0.373-0.916-0.42c-0.984-0.082-2.678-0.127-5.021-0.127
				c-1.276,0-2.446,0.016-3.499,0.045c-0.506,0.051-0.754,0.223-0.754,0.502c-0.109,1.719-0.153,3.426-0.153,5.105
				c0,0.244,0.153,0.369,0.495,0.369h3.987C104.297,127.924,106.028,128,107.541,128.1z M114.878,120.41l10.469,0.164
				c0.57-0.117,0.956-0.164,1.129-0.164c0.916,0,1.361,0.346,1.361,1.041c-0.264,1.453-0.477,3.037-0.621,4.732
				c-0.025,0.881-0.044,2.691-0.044,5.41c0,0.633-0.278,0.951-0.869,0.951c-0.354,0-0.567-0.102-0.657-0.326
				c-5.104,0-8.705,0.104-10.768,0.326c-0.182,0-0.32-0.01-0.43-0.033c-0.104,4.426-0.322,8.598-0.618,12.512
				c0,0.352,0.114,0.527,0.327,0.527c4.139-0.766,6.517-1.148,7.156-1.148c0.477,0,0.703,0.213,0.703,0.621
				c0,0.615-0.346,0.953-1.035,1.031c-2.221,0.23-3.992,0.549-5.326,0.957c-1.053,0.316-1.814,0.635-2.276,0.957
				c-0.397,0.26-0.736,0.379-1.042,0.379c-0.529,0-0.799-0.32-0.799-0.959c0-0.309,0.175-0.938,0.489-1.906
				c0.285-0.729,0.485-1.959,0.593-3.705c0.263-3.354,0.414-6.508,0.414-9.434c0-3.773-0.125-7.631-0.374-11.563
				c0-0.584,0.302-0.875,0.869-0.875c0.608,0,0.991,0.176,1.136,0.535C114.753,120.424,114.819,120.41,114.878,120.41z
				 M114.615,127.18c-0.057,1.367-0.094,2.689-0.109,3.963c0.264-0.176,0.549-0.256,0.869-0.256h9.59
				c0.238,0,0.405,0.012,0.556,0.033v-0.033c0-1.463,0.003-2.805,0.034-3.99h-0.034c-5.022,0-8.579,0.105-10.642,0.33
				C114.759,127.227,114.671,127.211,114.615,127.18z M114.697,121.902c0,1.271-0.013,2.541-0.031,3.783
				c0.188-0.084,0.373-0.115,0.543-0.115l9.756,0.154c0.258,0,0.452,0.018,0.59,0.043c0.024-1.383,0.069-2.563,0.125-3.537
				c0-0.328-0.109-0.496-0.332-0.496C122.413,121.734,118.856,121.797,114.697,121.902z M125.855,133.42
				c0.295,0,0.448,0.172,0.448,0.502c0,0.145-0.254,0.438-0.749,0.918c-1.063,0.932-2.164,1.848-3.328,2.736
				c0.048,0.033,0.095,0.059,0.123,0.084c2.418,2.879,4.516,4.951,6.285,6.197c1.025,0.777,2.634,1.455,4.816,2.045
				c0.227,0.074,0.333,0.229,0.333,0.439c0,0.313-0.526,0.707-1.587,1.172c-0.682,0.254-1.38,0.377-2.058,0.377
				c-1.128,0-2.044-0.512-2.791-1.549c-2.384-3.436-4.379-6.057-5.989-7.889c-0.064-0.092-0.089-0.141-0.089-0.16
				c-0.442,0.352-0.881,0.689-1.329,0.992c-0.66,0.482-1.312,0.721-1.954,0.746c-0.581,0-1.177-0.17-1.785-0.541
				c-0.477-0.322-0.702-0.695-0.702-1.078c0-0.119,0.139-0.182,0.451-0.207c1.139-0.09,2.133-0.289,2.992-0.629
				c1.061-0.311,2.104-0.807,3.162-1.492c1.27-0.746,2.414-1.586,3.415-2.492C125.594,133.469,125.705,133.42,125.855,133.42z"/>
			<path fill="#005AA0" stroke="#005AA0" stroke-width="0.9212" d="M138.604,126.266l7.492,2.965
				c0.357,0.127,0.533,0.363,0.533,0.695c0,0.221-0.176,0.342-0.533,0.342l-7.777-1.838c-0.584-0.188-0.878-0.605-0.878-1.203
				C137.441,126.59,137.845,126.266,138.604,126.266z M139.652,134.543c2.109,0,4.199,0.051,6.274,0.17
				c0.446-0.119,0.86-0.17,1.212-0.17c0.629,0,0.952,0.348,0.952,1.041c0,0.225-0.163,0.5-0.495,0.822
				c-0.841,1.002-1.455,2.049-1.876,3.176c-0.351,0.928-0.64,1.953-0.871,3.07c1.358,0.164,3.826,0.533,7.401,1.123
				c8.819,1.404,14.821,2.127,18.005,2.127c1.439,0,2.669-0.449,3.665-1.336c0.629-0.563,1.076-0.83,1.328-0.83
				c0.329,0.07,0.498,0.246,0.498,0.49c-0.063,0.842-0.648,1.877-1.797,3.123c-1.098,1.133-2.129,1.707-3.07,1.707
				c-0.608,0-1.261-0.109-1.96-0.328c-9.167-2.029-15.479-3.326-18.905-3.918c-2.895-0.496-4.745-0.746-5.585-0.746
				c-1.249,0-2.653,1.037-4.234,3.117c-0.445,0.586-0.973,0.877-1.59,0.877c-0.523,0-0.784-0.227-0.784-0.67
				c0-0.408,1.107-1.662,3.29-3.732c0.602-0.609,1.323-0.969,2.167-1.045c0.523-2.299,1.252-4.381,2.204-6.244
				c0-0.156-0.179-0.27-0.509-0.33c-1.673,0-3.18,0.047-4.534,0.131c-0.563,0.021-1.16,0.09-1.834,0.199
				c-0.523,0-0.784-0.227-0.784-0.654C137.82,134.936,138.428,134.543,139.652,134.543z M139.109,119.615
				c0.308,0,0.646,0.096,1.047,0.291c1.822,1.107,4.118,2.424,6.85,3.941c0.198,0.119,0.289,0.258,0.289,0.43
				c0,0.326-0.213,0.492-0.665,0.492c-0.22,0-0.577-0.119-1.073-0.369c-3.409-1.527-5.56-2.475-6.447-2.822
				c-0.527-0.314-0.79-0.703-0.79-1.168C138.319,119.885,138.582,119.615,139.109,119.615z M157.945,119.277
				c0.188,0,0.301,0.119,0.301,0.338c0,0.307-0.156,0.707-0.464,1.209c-0.81,1.299-1.778,2.561-2.903,3.779
				c-0.176,0.191-0.321,0.348-0.455,0.498c0.059-0.031,0.134-0.037,0.147-0.037c0.546,0.113,1.001,0.164,1.372,0.164h13.818
				l1.654-0.164c0.332,0,0.508,0.213,0.508,0.66c0,0.256-0.123,0.459-0.367,0.627c-0.208,0.168-0.426,0.25-0.678,0.25h-7.146
				l-0.096,3.324h5.42l1.496-0.156c0.326,0,0.49,0.203,0.49,0.607c0,0.229-0.089,0.424-0.293,0.59
				c-0.16,0.176-0.329,0.252-0.495,0.252h-6.618l-0.03,3.324h5.61l1.499-0.17c0.327,0,0.501,0.238,0.501,0.715
				c0,0.227-0.104,0.404-0.293,0.576c-0.174,0.145-0.334,0.215-0.503,0.215h-6.814l-0.042,3.527
				c2.941-0.025,5.424-0.041,7.479-0.041l1.668-0.279c0.367,0,0.537,0.199,0.537,0.611c0,0.365-0.192,0.713-0.568,1.043
				c-0.453,0.412-0.941,0.621-1.463,0.621c-1.115-0.201-2.433-0.346-3.961-0.459c-1.922-0.113-3.649-0.162-5.146-0.162
				c-1.918,0-3.588,0.049-5.035,0.162c-0.861,0.057-1.854,0.197-3.002,0.412c-0.085,0.949-0.348,1.416-0.824,1.416
				c-0.638,0-0.958-0.561-0.958-1.703c0.312-4.184,0.462-6.996,0.462-8.439c0-1.416-0.047-3.35-0.127-5.816v-0.045
				c-0.335,0.275-0.664,0.527-0.996,0.746c-0.853,0.641-1.533,0.957-2.029,0.957c-0.602,0-1.226-0.305-1.926-0.916
				c-0.354-0.271-0.535-0.521-0.535-0.742c0-0.223,0.094-0.34,0.285-0.34c2.148-0.248,3.772-0.818,4.866-1.705
				c1.528-1.076,3.228-2.824,5.085-5.232C157.447,119.35,157.644,119.277,157.945,119.277z M154.169,139.365h0.125
				c0.382,0,0.881,0.025,1.493,0.09c0.881,0.049,1.841,0.076,2.865,0.076c1.168-0.027,2.259-0.053,3.249-0.076v-3.576
				c-1.285,0.012-2.527,0.051-3.741,0.08c-1.219,0.029-2.519,0.107-3.866,0.252h-0.047
				C154.218,137.455,154.194,138.504,154.169,139.365z M161.902,134.543v-3.324c-1.311,0.049-2.564,0.096-3.788,0.125
				c-1.217,0.025-2.496,0.1-3.819,0.25c0,1.098-0.022,2.1-0.047,3c0.115-0.033,0.223-0.051,0.323-0.051
				c0.546,0.119,1.001,0.17,1.372,0.17L161.902,134.543z M161.902,129.926v-3.324c-1.285,0.021-2.496,0.057-3.656,0.074
				c-1.261,0.031-2.559,0.102-3.951,0.221v3.076c0.107-0.027,0.188-0.047,0.276-0.047c0.546,0.115,1.001,0.172,1.372,0.172
				L161.902,129.926z M166.591,119.277c0.436,0.023,0.713,0.299,0.799,0.797c0,0.299-0.05,0.604-0.169,0.877
				c-2.434,2.068-3.757,3.115-3.945,3.115c-0.332,0-0.507-0.166-0.507-0.494c0-0.145,0.934-1.418,2.79-3.832
				C165.782,119.439,166.124,119.277,166.591,119.277z"/>
		</g>
	</g>
</g>
</svg>
